<mxfile host="app.diagrams.net" agent="Mozilla/5.0 (X11; Linux x86_64) AppleWebKit/537.36 (KHTML, like Gecko) Chrome/137.0.0.0 Safari/537.36" version="28.0.7" pages="2">
  <diagram name="Page-1" id="MR1L3E7EyAJXu9_P_bUc">
    <mxGraphModel dx="-256" dy="327" grid="1" gridSize="10" guides="1" tooltips="1" connect="1" arrows="1" fold="1" page="1" pageScale="1" pageWidth="850" pageHeight="1100" math="0" shadow="0">
      <root>
        <mxCell id="0" />
        <mxCell id="1" parent="0" />
        <mxCell id="3I-46qMs5dw9miOmev2B-2" value="AWS Cloud" style="points=[[0,0],[0.25,0],[0.5,0],[0.75,0],[1,0],[1,0.25],[1,0.5],[1,0.75],[1,1],[0.75,1],[0.5,1],[0.25,1],[0,1],[0,0.75],[0,0.5],[0,0.25]];outlineConnect=0;gradientColor=none;html=1;whiteSpace=wrap;fontSize=12;fontStyle=0;container=1;pointerEvents=0;collapsible=0;recursiveResize=0;shape=mxgraph.aws4.group;grIcon=mxgraph.aws4.group_aws_cloud_alt;strokeColor=#232F3E;fillColor=none;verticalAlign=top;align=left;spacingLeft=30;fontColor=#232F3E;dashed=0;" parent="1" vertex="1">
          <mxGeometry x="1280" y="358.5" width="910" height="561.5" as="geometry" />
        </mxCell>
        <mxCell id="3I-46qMs5dw9miOmev2B-24" value="VPC" style="sketch=0;outlineConnect=0;gradientColor=none;html=1;whiteSpace=wrap;fontSize=12;fontStyle=0;shape=mxgraph.aws4.group;grIcon=mxgraph.aws4.group_vpc;strokeColor=#879196;fillColor=none;verticalAlign=top;align=left;spacingLeft=30;fontColor=#879196;dashed=0;" parent="3I-46qMs5dw9miOmev2B-2" vertex="1">
          <mxGeometry x="80" y="140" width="750" height="340" as="geometry" />
        </mxCell>
        <mxCell id="3I-46qMs5dw9miOmev2B-36" value="Private subnet" style="points=[[0,0],[0.25,0],[0.5,0],[0.75,0],[1,0],[1,0.25],[1,0.5],[1,0.75],[1,1],[0.75,1],[0.5,1],[0.25,1],[0,1],[0,0.75],[0,0.5],[0,0.25]];outlineConnect=0;gradientColor=none;html=1;whiteSpace=wrap;fontSize=12;fontStyle=0;container=1;pointerEvents=0;collapsible=0;recursiveResize=0;shape=mxgraph.aws4.group;grIcon=mxgraph.aws4.group_security_group;grStroke=0;strokeColor=#00A4A6;fillColor=#E6F6F7;verticalAlign=top;align=left;spacingLeft=30;fontColor=#147EBA;dashed=0;" parent="3I-46qMs5dw9miOmev2B-2" vertex="1">
          <mxGeometry x="490" y="160" width="330" height="300" as="geometry" />
        </mxCell>
        <mxCell id="3I-46qMs5dw9miOmev2B-11" value="Public subnet" style="points=[[0,0],[0.25,0],[0.5,0],[0.75,0],[1,0],[1,0.25],[1,0.5],[1,0.75],[1,1],[0.75,1],[0.5,1],[0.25,1],[0,1],[0,0.75],[0,0.5],[0,0.25]];outlineConnect=0;gradientColor=none;html=1;whiteSpace=wrap;fontSize=12;fontStyle=0;container=1;pointerEvents=0;collapsible=0;recursiveResize=0;shape=mxgraph.aws4.group;grIcon=mxgraph.aws4.group_security_group;grStroke=0;strokeColor=#7AA116;fillColor=#F2F6E8;verticalAlign=top;align=left;spacingLeft=30;fontColor=#248814;dashed=0;" parent="3I-46qMs5dw9miOmev2B-2" vertex="1">
          <mxGeometry x="220" y="150" width="260" height="168" as="geometry" />
        </mxCell>
        <mxCell id="3I-46qMs5dw9miOmev2B-26" style="edgeStyle=orthogonalEdgeStyle;rounded=0;orthogonalLoop=1;jettySize=auto;html=1;" parent="3I-46qMs5dw9miOmev2B-2" source="3I-46qMs5dw9miOmev2B-13" target="3I-46qMs5dw9miOmev2B-25" edge="1">
          <mxGeometry relative="1" as="geometry" />
        </mxCell>
        <mxCell id="3I-46qMs5dw9miOmev2B-13" value="AWS ECR" style="outlineConnect=0;dashed=0;verticalLabelPosition=bottom;verticalAlign=top;align=center;html=1;shape=mxgraph.aws3.ecr;fillColor=#F58534;gradientColor=none;" parent="3I-46qMs5dw9miOmev2B-2" vertex="1">
          <mxGeometry x="582.56" y="19.5" width="90" height="94" as="geometry" />
        </mxCell>
        <mxCell id="3I-46qMs5dw9miOmev2B-23" style="edgeStyle=orthogonalEdgeStyle;rounded=0;orthogonalLoop=1;jettySize=auto;html=1;startArrow=classic;startFill=1;" parent="3I-46qMs5dw9miOmev2B-2" source="3I-46qMs5dw9miOmev2B-15" target="3I-46qMs5dw9miOmev2B-12" edge="1">
          <mxGeometry relative="1" as="geometry" />
        </mxCell>
        <mxCell id="3I-46qMs5dw9miOmev2B-15" value="AWS S3 Bucket" style="outlineConnect=0;dashed=0;verticalLabelPosition=bottom;verticalAlign=top;align=center;html=1;shape=mxgraph.aws3.s3;fillColor=#E05243;gradientColor=none;" parent="3I-46qMs5dw9miOmev2B-2" vertex="1">
          <mxGeometry x="260" y="11.5" width="76.5" height="93" as="geometry" />
        </mxCell>
        <mxCell id="3I-46qMs5dw9miOmev2B-16" value="Route53" style="sketch=0;points=[[0,0,0],[0.25,0,0],[0.5,0,0],[0.75,0,0],[1,0,0],[0,1,0],[0.25,1,0],[0.5,1,0],[0.75,1,0],[1,1,0],[0,0.25,0],[0,0.5,0],[0,0.75,0],[1,0.25,0],[1,0.5,0],[1,0.75,0]];outlineConnect=0;fontColor=#232F3E;fillColor=#8C4FFF;strokeColor=#ffffff;dashed=0;verticalLabelPosition=bottom;verticalAlign=top;align=center;html=1;fontSize=12;fontStyle=0;aspect=fixed;shape=mxgraph.aws4.resourceIcon;resIcon=mxgraph.aws4.route_53;" parent="3I-46qMs5dw9miOmev2B-2" vertex="1">
          <mxGeometry x="100" y="195.75" width="78" height="78" as="geometry" />
        </mxCell>
        <mxCell id="3I-46qMs5dw9miOmev2B-22" style="edgeStyle=orthogonalEdgeStyle;rounded=0;orthogonalLoop=1;jettySize=auto;html=1;entryX=0;entryY=0.5;entryDx=0;entryDy=0;entryPerimeter=0;" parent="3I-46qMs5dw9miOmev2B-2" source="3I-46qMs5dw9miOmev2B-16" target="3I-46qMs5dw9miOmev2B-12" edge="1">
          <mxGeometry relative="1" as="geometry" />
        </mxCell>
        <mxCell id="3I-46qMs5dw9miOmev2B-31" style="edgeStyle=orthogonalEdgeStyle;rounded=0;orthogonalLoop=1;jettySize=auto;html=1;startArrow=classic;startFill=1;" parent="3I-46qMs5dw9miOmev2B-2" source="3I-46qMs5dw9miOmev2B-25" target="3I-46qMs5dw9miOmev2B-30" edge="1">
          <mxGeometry relative="1" as="geometry" />
        </mxCell>
        <mxCell id="3I-46qMs5dw9miOmev2B-25" value="AWS Fargate" style="sketch=0;outlineConnect=0;fontColor=#232F3E;gradientColor=none;strokeColor=#ffffff;fillColor=#232F3E;dashed=0;verticalLabelPosition=middle;verticalAlign=bottom;align=center;html=1;whiteSpace=wrap;fontSize=10;fontStyle=1;spacing=3;shape=mxgraph.aws4.productIcon;prIcon=mxgraph.aws4.fargate;" parent="3I-46qMs5dw9miOmev2B-2" vertex="1">
          <mxGeometry x="587.56" y="184" width="80" height="100" as="geometry" />
        </mxCell>
        <mxCell id="3I-46qMs5dw9miOmev2B-29" style="edgeStyle=orthogonalEdgeStyle;rounded=0;orthogonalLoop=1;jettySize=auto;html=1;startArrow=classic;startFill=1;" parent="3I-46qMs5dw9miOmev2B-2" source="3I-46qMs5dw9miOmev2B-27" target="3I-46qMs5dw9miOmev2B-25" edge="1">
          <mxGeometry relative="1" as="geometry" />
        </mxCell>
        <mxCell id="3I-46qMs5dw9miOmev2B-27" value="ALB" style="outlineConnect=0;dashed=0;verticalLabelPosition=bottom;verticalAlign=top;align=center;html=1;shape=mxgraph.aws3.application_load_balancer;fillColor=#F58534;gradientColor=none;" parent="3I-46qMs5dw9miOmev2B-2" vertex="1">
          <mxGeometry x="395" y="197.25" width="69" height="72" as="geometry" />
        </mxCell>
        <mxCell id="3I-46qMs5dw9miOmev2B-28" style="edgeStyle=orthogonalEdgeStyle;rounded=0;orthogonalLoop=1;jettySize=auto;html=1;startArrow=classic;startFill=1;" parent="3I-46qMs5dw9miOmev2B-2" source="3I-46qMs5dw9miOmev2B-12" target="3I-46qMs5dw9miOmev2B-27" edge="1">
          <mxGeometry relative="1" as="geometry" />
        </mxCell>
        <mxCell id="3I-46qMs5dw9miOmev2B-33" style="edgeStyle=orthogonalEdgeStyle;rounded=0;orthogonalLoop=1;jettySize=auto;html=1;startArrow=classic;startFill=1;" parent="3I-46qMs5dw9miOmev2B-2" source="3I-46qMs5dw9miOmev2B-30" target="3I-46qMs5dw9miOmev2B-32" edge="1">
          <mxGeometry relative="1" as="geometry" />
        </mxCell>
        <mxCell id="3I-46qMs5dw9miOmev2B-30" value="Elasticache" style="outlineConnect=0;dashed=0;verticalLabelPosition=bottom;verticalAlign=top;align=center;html=1;shape=mxgraph.aws3.elasticache;fillColor=#2E73B8;gradientColor=none;" parent="3I-46qMs5dw9miOmev2B-2" vertex="1">
          <mxGeometry x="593.81" y="341.5" width="67.5" height="81" as="geometry" />
        </mxCell>
        <mxCell id="3I-46qMs5dw9miOmev2B-32" value="RDS" style="outlineConnect=0;dashed=0;verticalLabelPosition=bottom;verticalAlign=top;align=center;html=1;shape=mxgraph.aws3.rds;fillColor=#2E73B8;gradientColor=none;" parent="3I-46qMs5dw9miOmev2B-2" vertex="1">
          <mxGeometry x="730" y="341.5" width="72" height="81" as="geometry" />
        </mxCell>
        <mxCell id="3I-46qMs5dw9miOmev2B-12" value="AWS Amplify" style="sketch=0;points=[[0,0,0],[0.25,0,0],[0.5,0,0],[0.75,0,0],[1,0,0],[0,1,0],[0.25,1,0],[0.5,1,0],[0.75,1,0],[1,1,0],[0,0.25,0],[0,0.5,0],[0,0.75,0],[1,0.25,0],[1,0.5,0],[1,0.75,0]];outlineConnect=0;fontColor=#232F3E;fillColor=#DD344C;strokeColor=#ffffff;dashed=0;verticalLabelPosition=bottom;verticalAlign=top;align=center;html=1;fontSize=12;fontStyle=0;aspect=fixed;shape=mxgraph.aws4.resourceIcon;resIcon=mxgraph.aws4.amplify;" parent="3I-46qMs5dw9miOmev2B-2" vertex="1">
          <mxGeometry x="260" y="195" width="78" height="78" as="geometry" />
        </mxCell>
        <mxCell id="3I-46qMs5dw9miOmev2B-10" style="edgeStyle=orthogonalEdgeStyle;rounded=0;orthogonalLoop=1;jettySize=auto;html=1;" parent="1" source="3I-46qMs5dw9miOmev2B-4" target="3I-46qMs5dw9miOmev2B-9" edge="1">
          <mxGeometry relative="1" as="geometry" />
        </mxCell>
        <mxCell id="3I-46qMs5dw9miOmev2B-4" value="Github + Github Actions" style="dashed=0;outlineConnect=0;html=1;align=center;labelPosition=center;verticalLabelPosition=bottom;verticalAlign=top;shape=mxgraph.weblogos.github" parent="1" vertex="1">
          <mxGeometry x="1650" y="101.5" width="75" height="75" as="geometry" />
        </mxCell>
        <mxCell id="3I-46qMs5dw9miOmev2B-7" style="edgeStyle=orthogonalEdgeStyle;rounded=0;orthogonalLoop=1;jettySize=auto;html=1;" parent="1" source="3I-46qMs5dw9miOmev2B-5" target="3I-46qMs5dw9miOmev2B-4" edge="1">
          <mxGeometry relative="1" as="geometry" />
        </mxCell>
        <mxCell id="3I-46qMs5dw9miOmev2B-5" value="Git" style="sketch=0;outlineConnect=0;fontColor=#232F3E;gradientColor=none;fillColor=#232F3D;strokeColor=none;dashed=0;verticalLabelPosition=bottom;verticalAlign=top;align=center;html=1;fontSize=12;fontStyle=0;aspect=fixed;pointerEvents=1;shape=mxgraph.aws4.git_repository;" parent="1" vertex="1">
          <mxGeometry x="1380" y="100" width="60" height="78" as="geometry" />
        </mxCell>
        <mxCell id="3I-46qMs5dw9miOmev2B-8" style="edgeStyle=orthogonalEdgeStyle;rounded=0;orthogonalLoop=1;jettySize=auto;html=1;" parent="1" source="3I-46qMs5dw9miOmev2B-6" target="3I-46qMs5dw9miOmev2B-5" edge="1">
          <mxGeometry relative="1" as="geometry" />
        </mxCell>
        <mxCell id="3I-46qMs5dw9miOmev2B-6" value="" style="aspect=fixed;sketch=0;html=1;dashed=0;whitespace=wrap;verticalLabelPosition=bottom;verticalAlign=top;fillColor=#2875E2;strokeColor=#ffffff;points=[[0.005,0.63,0],[0.1,0.2,0],[0.9,0.2,0],[0.5,0,0],[0.995,0.63,0],[0.72,0.99,0],[0.5,1,0],[0.28,0.99,0]];shape=mxgraph.kubernetes.icon2;kubernetesLabel=1;prIcon=user" parent="1" vertex="1">
          <mxGeometry x="1170" y="103.25" width="74.48" height="71.5" as="geometry" />
        </mxCell>
        <mxCell id="3I-46qMs5dw9miOmev2B-19" style="edgeStyle=orthogonalEdgeStyle;rounded=0;orthogonalLoop=1;jettySize=auto;html=1;" parent="1" source="3I-46qMs5dw9miOmev2B-9" target="3I-46qMs5dw9miOmev2B-13" edge="1">
          <mxGeometry relative="1" as="geometry" />
        </mxCell>
        <mxCell id="3I-46qMs5dw9miOmev2B-9" value="" style="image;sketch=0;aspect=fixed;html=1;points=[];align=center;fontSize=12;image=img/lib/mscae/Docker.svg;" parent="1" vertex="1">
          <mxGeometry x="1860" y="100" width="95.12" height="78" as="geometry" />
        </mxCell>
        <mxCell id="3I-46qMs5dw9miOmev2B-18" value="Internet Gateway" style="sketch=0;outlineConnect=0;fontColor=#232F3E;gradientColor=none;fillColor=#8C4FFF;strokeColor=none;dashed=0;verticalLabelPosition=bottom;verticalAlign=top;align=center;html=1;fontSize=12;fontStyle=0;aspect=fixed;pointerEvents=1;shape=mxgraph.aws4.internet_gateway;" parent="1" vertex="1">
          <mxGeometry x="1244.48" y="554.25" width="78" height="78" as="geometry" />
        </mxCell>
        <mxCell id="3I-46qMs5dw9miOmev2B-21" style="edgeStyle=orthogonalEdgeStyle;rounded=0;orthogonalLoop=1;jettySize=auto;html=1;entryX=0;entryY=0.5;entryDx=0;entryDy=0;entryPerimeter=0;" parent="1" source="3I-46qMs5dw9miOmev2B-18" target="3I-46qMs5dw9miOmev2B-16" edge="1">
          <mxGeometry relative="1" as="geometry" />
        </mxCell>
        <mxCell id="3I-46qMs5dw9miOmev2B-35" style="edgeStyle=orthogonalEdgeStyle;rounded=0;orthogonalLoop=1;jettySize=auto;html=1;" parent="1" source="3I-46qMs5dw9miOmev2B-34" target="3I-46qMs5dw9miOmev2B-18" edge="1">
          <mxGeometry relative="1" as="geometry" />
        </mxCell>
        <mxCell id="3I-46qMs5dw9miOmev2B-34" value="" style="aspect=fixed;sketch=0;html=1;dashed=0;whitespace=wrap;verticalLabelPosition=bottom;verticalAlign=top;fillColor=#2875E2;strokeColor=#ffffff;points=[[0.005,0.63,0],[0.1,0.2,0],[0.9,0.2,0],[0.5,0,0],[0.995,0.63,0],[0.72,0.99,0],[0.5,1,0],[0.28,0.99,0]];shape=mxgraph.kubernetes.icon2;kubernetesLabel=1;prIcon=user" parent="1" vertex="1">
          <mxGeometry x="1040" y="549.25" width="91.67" height="88" as="geometry" />
        </mxCell>
      </root>
    </mxGraphModel>
  </diagram>
  <diagram id="fbQpOce9XygJjrqumG4C" name="Page-2">
    <mxGraphModel grid="1" page="1" gridSize="10" guides="1" tooltips="1" connect="1" arrows="1" fold="1" pageScale="1" pageWidth="850" pageHeight="1100" math="0" shadow="0">
      <root>
        <mxCell id="0" />
        <mxCell id="1" parent="0" />
      </root>
    </mxGraphModel>
  </diagram>
</mxfile>
